# xmcd
#
# Track frame offsets: 
#        150
#        22725
#        47220
#        69795
#
# Disc length: 1254 seconds
#
# Revision: 2
# Processed by: cddbd v1.5.2PL0 Copyright (c) Steve Scherf et al.
# Submitted via: ExactAudioCopy v1.0b3
#
DISCID=2504e404
DTITLE=一青窈 - はじめて
DYEAR=2006
DGENRE=JPop
TTITLE0=はじめて
TTITLE1=ハナミズキ
TTITLE2=はじめて (オリジナル・カラオケ)
TTITLE3=ハナミズキ (オリジナル・カラオケ)
EXTD=YEAR: 2006
EXTT0=
EXTT1=
EXTT2=
EXTT3=
PLAYORDER=
